<svg id="svg" version="1.1" xmlns="http://www.w3.org/2000/svg" xmlns:xlink="http://www.w3.org/1999/xlink" width="400" height="400" viewBox="0, 0, 400,400"><g id="svgg"><path id="path0" d="M173.600 0.400 C 173.600 0.640,172.016 0.800,169.649 0.800 C 166.625 0.800,165.581 0.941,165.200 1.400 C 164.854 1.817,163.934 2.000,162.180 2.000 C 160.554 2.000,159.459 2.199,159.099 2.558 C 158.788 2.869,157.489 3.179,156.170 3.257 C 154.867 3.334,153.562 3.623,153.271 3.899 C 152.835 4.313,150.302 4.643,149.089 4.444 C 148.918 4.416,148.673 4.664,148.546 4.996 C 148.389 5.405,147.759 5.600,146.590 5.600 C 144.663 5.600,143.508 5.927,143.795 6.392 C 143.900 6.561,143.064 6.788,141.938 6.896 C 140.616 7.023,139.762 7.324,139.526 7.746 C 139.273 8.198,138.611 8.400,137.380 8.400 C 136.064 8.400,135.600 8.557,135.600 9.000 C 135.600 9.444,135.133 9.600,133.800 9.600 C 132.467 9.600,132.000 9.756,132.000 10.200 C 132.000 10.634,131.554 10.800,130.387 10.800 C 129.323 10.800,128.697 11.004,128.545 11.400 C 128.418 11.730,127.834 12.000,127.246 12.000 C 126.659 12.000,125.815 12.255,125.371 12.566 C 124.926 12.877,124.031 13.192,123.382 13.266 C 122.701 13.343,122.242 13.612,122.300 13.900 C 122.365 14.224,121.907 14.400,121.000 14.400 C 120.022 14.400,119.600 14.581,119.600 15.000 C 119.600 15.394,119.206 15.600,118.454 15.600 C 117.824 15.600,116.834 15.973,116.254 16.429 C 115.674 16.885,115.200 17.133,115.200 16.980 C 115.200 16.827,114.930 16.926,114.600 17.200 C 114.270 17.474,113.995 17.541,113.988 17.349 C 113.981 17.157,113.792 17.315,113.568 17.700 C 113.344 18.085,112.822 18.400,112.409 18.400 C 111.995 18.400,111.396 18.661,111.077 18.980 C 110.758 19.299,110.025 19.679,109.448 19.824 C 108.872 19.968,108.400 20.247,108.400 20.443 C 108.400 20.640,107.944 20.800,107.387 20.800 C 106.831 20.800,106.271 21.070,106.145 21.400 C 106.018 21.730,105.478 22.000,104.945 22.000 C 104.411 22.000,103.871 22.270,103.745 22.600 C 103.618 22.930,103.196 23.200,102.806 23.200 C 102.417 23.200,101.874 23.470,101.600 23.800 C 101.326 24.130,100.764 24.400,100.351 24.400 C 99.938 24.400,99.600 24.670,99.600 25.000 C 99.600 25.370,99.224 25.600,98.620 25.600 C 98.081 25.600,97.496 25.829,97.320 26.108 C 97.144 26.388,96.505 26.834,95.900 27.100 C 95.295 27.365,94.800 27.767,94.800 27.991 C 94.800 28.216,94.440 28.400,94.000 28.400 C 93.556 28.400,93.200 28.667,93.200 29.000 C 93.200 29.375,92.821 29.600,92.187 29.600 C 91.631 29.600,91.071 29.870,90.945 30.200 C 90.818 30.530,90.464 30.800,90.157 30.800 C 89.851 30.800,89.600 31.070,89.600 31.400 C 89.600 31.800,89.200 32.000,88.400 32.000 C 87.600 32.000,87.200 32.200,87.200 32.600 C 87.200 32.933,86.844 33.200,86.400 33.200 C 85.956 33.200,85.600 33.467,85.600 33.800 C 85.600 34.319,85.065 34.606,84.671 34.300 C 84.601 34.245,84.228 34.515,83.843 34.900 C 83.458 35.285,82.907 35.600,82.618 35.600 C 82.329 35.600,81.994 35.978,81.874 36.440 C 81.753 36.902,81.486 37.177,81.280 37.050 C 81.075 36.923,80.585 37.175,80.191 37.609 C 79.798 38.044,79.234 38.400,78.938 38.400 C 78.642 38.400,78.400 38.670,78.400 39.000 C 78.400 39.330,78.139 39.600,77.820 39.600 C 77.501 39.600,77.096 39.825,76.920 40.100 C 76.558 40.666,75.441 41.412,74.076 42.000 C 73.568 42.219,73.263 42.579,73.400 42.799 C 73.536 43.020,73.277 43.200,72.824 43.200 C 72.358 43.200,72.000 43.461,72.000 43.800 C 72.000 44.130,71.730 44.400,71.400 44.400 C 71.070 44.400,70.800 44.670,70.800 45.000 C 70.800 45.330,70.530 45.600,70.200 45.600 C 69.870 45.600,69.600 45.870,69.600 46.200 C 69.600 46.530,69.321 46.800,68.981 46.800 C 68.640 46.800,67.920 47.276,67.381 47.858 C 66.841 48.441,66.400 48.801,66.400 48.658 C 66.400 48.516,65.320 49.480,64.000 50.800 C 62.680 52.120,61.420 53.200,61.200 53.200 C 60.980 53.200,60.800 53.470,60.800 53.800 C 60.800 54.130,60.530 54.400,60.200 54.400 C 59.870 54.400,59.600 54.568,59.600 54.774 C 59.600 55.261,55.261 59.600,54.774 59.600 C 54.568 59.600,54.400 59.870,54.400 60.200 C 54.400 60.530,54.130 60.800,53.800 60.800 C 53.470 60.800,53.200 60.980,53.200 61.200 C 53.200 61.719,51.719 63.200,51.200 63.200 C 50.980 63.200,50.800 63.560,50.800 64.000 C 50.800 64.440,50.665 64.755,50.500 64.700 C 50.198 64.599,48.400 66.227,48.400 66.600 C 48.400 66.710,48.085 67.133,47.700 67.540 C 46.404 68.909,45.600 70.007,45.600 70.405 C 45.600 70.622,45.330 70.800,45.000 70.800 C 44.670 70.800,44.400 71.070,44.400 71.400 C 44.400 71.730,44.130 72.000,43.800 72.000 C 43.470 72.000,43.200 72.188,43.200 72.417 C 43.200 72.646,43.017 73.051,42.793 73.317 C 41.131 75.288,40.800 75.809,40.800 76.461 C 40.800 76.868,40.530 77.200,40.200 77.200 C 39.870 77.200,39.600 77.470,39.600 77.800 C 39.600 78.130,39.330 78.400,39.000 78.400 C 38.661 78.400,38.400 78.758,38.400 79.224 C 38.400 79.698,38.222 79.937,37.979 79.787 C 37.744 79.642,37.352 80.072,37.091 80.763 C 36.835 81.444,36.394 82.000,36.112 82.000 C 35.831 82.000,35.600 82.270,35.600 82.600 C 35.600 82.930,35.438 83.200,35.239 83.200 C 35.041 83.200,34.690 83.740,34.460 84.400 C 34.230 85.060,33.852 85.600,33.621 85.600 C 33.389 85.600,33.200 85.792,33.200 86.027 C 33.200 86.261,32.762 87.027,32.227 87.728 C 31.693 88.430,31.063 89.509,30.828 90.126 C 30.594 90.743,30.221 91.137,30.001 91.000 C 29.766 90.856,29.600 91.261,29.600 91.976 C 29.600 92.797,29.403 93.200,29.000 93.200 C 28.670 93.200,28.400 93.442,28.400 93.738 C 28.400 94.034,28.040 94.602,27.600 95.000 C 27.160 95.398,26.800 95.972,26.800 96.275 C 26.800 96.577,26.530 96.929,26.200 97.055 C 25.858 97.187,25.600 97.783,25.600 98.443 C 25.600 99.121,25.386 99.600,25.084 99.600 C 24.801 99.600,24.137 100.580,23.610 101.778 C 23.083 102.975,22.505 103.865,22.326 103.754 C 22.146 103.643,22.000 104.103,22.000 104.776 C 22.000 105.542,21.813 105.963,21.500 105.900 C 21.210 105.842,20.943 106.305,20.865 107.000 C 20.791 107.660,20.476 108.344,20.165 108.520 C 19.854 108.696,19.600 109.281,19.600 109.820 C 19.600 110.424,19.370 110.800,19.000 110.800 C 18.627 110.800,18.400 111.178,18.400 111.800 C 18.400 112.350,18.040 113.160,17.600 113.600 C 17.160 114.040,16.800 114.683,16.800 115.029 C 16.800 115.374,16.530 115.927,16.200 116.257 C 15.870 116.587,15.600 117.272,15.600 117.780 C 15.600 118.287,15.330 118.926,15.000 119.200 C 14.670 119.474,14.400 120.197,14.400 120.806 C 14.400 121.422,14.134 122.017,13.800 122.145 C 13.456 122.277,13.200 122.874,13.200 123.545 C 13.200 124.215,12.944 124.813,12.600 124.945 C 12.204 125.097,12.000 125.723,12.000 126.787 C 12.000 127.954,11.834 128.400,11.400 128.400 C 10.997 128.400,10.800 128.803,10.800 129.629 C 10.800 130.304,10.530 131.127,10.200 131.457 C 9.870 131.787,9.600 132.597,9.600 133.257 C 9.600 133.917,9.330 134.727,9.000 135.057 C 8.670 135.387,8.400 136.291,8.400 137.065 C 8.400 137.868,8.056 138.911,7.600 139.491 C 7.160 140.050,6.800 141.101,6.800 141.825 C 6.800 142.550,6.530 143.413,6.200 143.743 C 5.869 144.074,5.600 145.052,5.600 145.922 C 5.600 146.791,5.359 147.702,5.065 147.946 C 4.771 148.190,4.498 149.236,4.459 150.270 C 4.420 151.304,4.121 152.446,3.794 152.807 C 3.406 153.235,3.200 154.305,3.200 155.889 C 3.200 157.676,3.042 158.375,2.600 158.545 C 2.141 158.721,2.000 159.474,2.000 161.745 C 2.000 164.015,1.859 164.769,1.400 164.945 C 0.922 165.128,0.800 165.990,0.800 169.187 C 0.800 171.596,0.640 173.200,0.400 173.200 C 0.141 173.200,0.000 177.867,0.000 186.400 L 0.000 199.600 200.000 199.600 L 400.000 199.600 400.000 186.033 C 400.000 177.832,399.850 172.414,399.620 172.333 C 399.411 172.260,399.208 170.535,399.168 168.500 C 399.112 165.671,398.966 164.800,398.547 164.800 C 398.130 164.800,398.000 164.041,398.000 161.600 C 398.000 159.022,397.883 158.400,397.400 158.400 C 396.925 158.400,396.800 157.828,396.800 155.649 C 396.800 153.692,396.627 152.754,396.200 152.400 C 395.842 152.102,395.600 151.228,395.600 150.227 C 395.600 149.306,395.336 148.204,395.013 147.776 C 394.690 147.349,394.420 146.229,394.413 145.287 C 394.404 144.143,394.201 143.499,393.800 143.345 C 393.396 143.190,393.200 142.556,393.200 141.406 C 393.200 140.376,392.962 139.500,392.600 139.200 C 392.270 138.926,391.999 138.229,391.998 137.651 C 391.996 137.073,391.726 136.084,391.398 135.454 C 391.069 134.824,390.800 133.879,390.800 133.354 C 390.800 132.829,390.440 132.040,390.000 131.600 C 389.556 131.156,389.200 130.267,389.200 129.600 C 389.200 128.800,389.000 128.400,388.600 128.400 C 388.156 128.400,388.000 127.933,388.000 126.600 C 388.000 125.373,387.841 124.832,387.500 124.900 C 387.187 124.963,386.953 124.438,386.876 123.500 C 386.795 122.519,386.553 122.000,386.176 122.000 C 385.811 122.000,385.600 121.588,385.600 120.876 C 385.600 120.259,385.336 119.404,385.013 118.976 C 384.690 118.549,384.420 117.817,384.413 117.349 C 384.406 116.881,384.130 116.274,383.800 116.000 C 383.470 115.726,383.200 115.177,383.200 114.780 C 383.200 114.382,382.930 113.787,382.600 113.457 C 382.270 113.127,382.000 112.587,382.000 112.257 C 382.000 111.927,381.760 111.418,381.467 111.125 C 381.175 110.832,380.811 110.099,380.660 109.496 C 380.509 108.893,380.118 108.400,379.792 108.400 C 379.399 108.400,379.200 107.992,379.200 107.187 C 379.200 106.479,378.951 105.879,378.600 105.745 C 378.270 105.618,378.000 105.078,378.000 104.545 C 378.000 104.011,377.730 103.471,377.400 103.345 C 377.070 103.218,376.800 102.774,376.800 102.357 C 376.800 101.941,376.638 101.600,376.439 101.600 C 376.241 101.600,375.875 101.105,375.627 100.500 C 375.049 99.092,374.215 97.655,373.646 97.086 C 373.401 96.841,373.200 96.387,373.200 96.078 C 373.200 95.768,372.660 94.833,372.000 94.000 C 371.340 93.167,370.800 92.287,370.800 92.046 C 370.800 91.804,370.440 91.382,370.000 91.107 C 369.560 90.832,369.200 90.408,369.200 90.164 C 369.200 89.920,368.705 89.009,368.100 88.139 C 366.335 85.603,365.991 85.041,365.742 84.300 C 365.612 83.915,365.258 83.600,364.953 83.600 C 364.649 83.600,364.400 83.240,364.400 82.800 C 364.400 82.356,364.133 82.000,363.800 82.000 C 363.470 82.000,363.200 81.730,363.200 81.400 C 363.200 81.070,363.020 80.800,362.800 80.800 C 362.580 80.800,362.400 80.564,362.400 80.275 C 362.400 79.987,362.076 79.402,361.680 78.975 C 361.284 78.549,360.839 77.885,360.692 77.500 C 360.545 77.115,360.149 76.800,359.813 76.800 C 359.464 76.800,359.200 76.450,359.200 75.987 C 359.200 75.541,358.930 75.071,358.600 74.945 C 358.270 74.818,358.000 74.464,358.000 74.157 C 358.000 73.851,357.730 73.600,357.400 73.600 C 357.067 73.600,356.800 73.244,356.800 72.800 C 356.800 72.356,356.533 72.000,356.200 72.000 C 355.870 72.000,355.600 71.730,355.600 71.400 C 355.600 71.070,355.330 70.800,355.000 70.800 C 354.670 70.800,354.400 70.569,354.400 70.286 C 354.400 69.773,352.952 67.940,350.500 65.348 C 349.785 64.592,349.200 63.799,349.200 63.587 C 349.200 63.374,348.930 63.200,348.600 63.200 C 348.270 63.200,348.000 62.930,348.000 62.600 C 348.000 62.270,347.730 62.000,347.400 62.000 C 347.070 62.000,346.800 61.730,346.800 61.400 C 346.800 61.070,346.530 60.800,346.200 60.800 C 345.870 60.800,345.600 60.530,345.600 60.200 C 345.600 59.870,345.330 59.600,345.000 59.600 C 344.670 59.600,344.400 59.330,344.400 59.000 C 344.400 58.670,344.130 58.400,343.800 58.400 C 343.470 58.400,343.200 58.185,343.200 57.923 C 343.200 57.381,340.126 54.400,339.566 54.400 C 339.365 54.400,339.200 54.130,339.200 53.800 C 339.200 53.470,338.930 53.200,338.600 53.200 C 338.270 53.200,338.000 52.930,338.000 52.600 C 338.000 52.270,337.730 52.000,337.400 52.000 C 337.070 52.000,336.800 51.730,336.800 51.400 C 336.800 51.070,336.557 50.800,336.260 50.800 C 335.963 50.800,335.306 50.260,334.800 49.600 C 334.294 48.940,333.737 48.400,333.562 48.400 C 333.388 48.400,332.560 47.771,331.722 47.002 C 330.885 46.233,329.975 45.603,329.700 45.602 C 329.425 45.601,329.200 45.330,329.200 45.000 C 329.200 44.670,328.930 44.400,328.600 44.400 C 328.270 44.400,328.000 44.130,328.000 43.800 C 328.000 43.467,327.644 43.200,327.200 43.200 C 326.760 43.200,326.445 42.975,326.500 42.700 C 326.555 42.425,326.396 42.238,326.148 42.284 C 325.899 42.330,325.376 42.015,324.986 41.584 C 324.595 41.153,324.034 40.800,323.738 40.800 C 323.442 40.800,323.200 40.530,323.200 40.200 C 323.200 39.870,322.924 39.600,322.587 39.600 C 322.251 39.600,321.871 39.330,321.745 39.000 C 321.618 38.670,321.354 38.400,321.157 38.400 C 320.961 38.400,320.440 38.040,320.000 37.600 C 319.560 37.160,318.930 36.800,318.600 36.800 C 318.270 36.800,318.000 36.530,318.000 36.200 C 318.000 35.870,317.730 35.600,317.400 35.600 C 317.070 35.600,316.800 35.438,316.800 35.239 C 316.800 35.041,316.260 34.690,315.600 34.460 C 314.940 34.230,314.400 33.852,314.400 33.621 C 314.400 33.389,314.124 33.200,313.787 33.200 C 313.451 33.200,313.079 32.950,312.962 32.645 C 312.845 32.340,312.208 31.982,311.548 31.850 C 310.882 31.716,310.459 31.429,310.597 31.205 C 310.735 30.982,310.477 30.800,310.024 30.800 C 309.558 30.800,309.200 30.539,309.200 30.200 C 309.200 29.800,308.800 29.600,308.000 29.600 C 307.200 29.600,306.800 29.400,306.800 29.000 C 306.800 28.670,306.524 28.400,306.187 28.400 C 305.851 28.400,305.472 28.131,305.346 27.802 C 305.219 27.474,304.955 27.304,304.758 27.426 C 304.561 27.548,304.400 27.457,304.400 27.224 C 304.400 26.991,304.152 26.800,303.849 26.800 C 303.546 26.800,303.076 26.532,302.804 26.204 C 302.532 25.877,302.155 25.704,301.965 25.821 C 301.776 25.938,301.307 25.666,300.922 25.217 C 300.537 24.768,299.924 24.400,299.560 24.400 C 299.196 24.400,298.689 24.148,298.433 23.839 C 298.177 23.531,297.525 23.167,296.984 23.032 C 296.443 22.896,296.000 22.608,296.000 22.392 C 296.000 22.177,295.649 22.000,295.220 22.000 C 294.791 22.000,294.296 21.743,294.120 21.428 C 293.786 20.831,293.701 20.800,292.400 20.800 C 291.956 20.800,291.600 20.533,291.600 20.200 C 291.600 19.870,291.465 19.621,291.300 19.647 C 290.197 19.822,289.200 19.514,289.200 19.000 C 289.200 18.627,288.822 18.400,288.200 18.400 C 287.650 18.400,286.840 18.040,286.400 17.600 C 285.960 17.160,285.255 16.800,284.833 16.800 C 284.412 16.800,284.004 16.611,283.927 16.380 C 283.850 16.149,283.160 15.862,282.393 15.742 C 281.627 15.623,280.856 15.272,280.680 14.962 C 280.504 14.653,279.848 14.400,279.223 14.400 C 278.581 14.400,277.985 14.139,277.855 13.800 C 277.724 13.457,277.127 13.200,276.462 13.200 C 275.822 13.200,275.074 12.930,274.800 12.600 C 274.526 12.270,273.694 12.000,272.951 12.000 C 272.017 12.000,271.600 11.815,271.600 11.400 C 271.600 10.958,271.138 10.800,269.843 10.800 C 268.650 10.800,268.012 10.607,267.855 10.200 C 267.703 9.804,267.077 9.600,266.013 9.600 C 264.846 9.600,264.400 9.434,264.400 9.000 C 264.400 8.577,263.972 8.400,262.944 8.400 C 262.084 8.400,261.301 8.144,261.030 7.773 C 260.778 7.429,259.768 7.045,258.786 6.919 C 257.804 6.794,256.740 6.491,256.423 6.246 C 255.966 5.892,255.910 5.924,256.153 6.400 C 256.420 6.923,256.391 6.922,255.930 6.394 C 255.638 6.061,254.775 5.728,254.011 5.655 C 253.248 5.581,252.262 5.269,251.822 4.961 C 251.382 4.652,250.286 4.400,249.387 4.400 C 248.488 4.400,247.404 4.136,246.976 3.813 C 246.514 3.463,245.291 3.220,243.949 3.213 C 242.449 3.204,241.532 3.000,241.200 2.600 C 240.847 2.175,239.914 2.000,238.000 2.000 C 236.086 2.000,235.153 1.825,234.800 1.400 C 234.419 0.941,233.375 0.800,230.351 0.800 C 227.984 0.800,226.400 0.640,226.400 0.400 C 226.400 0.137,217.333 0.000,200.000 0.000 C 182.667 0.000,173.600 0.137,173.600 0.400 M169.073 35.700 C 169.778 36.480,184.660 58.720,185.200 59.800 C 186.140 61.680,199.654 81.535,200.114 81.712 C 200.550 81.879,201.866 80.084,204.982 75.070 C 207.331 71.292,210.347 66.490,211.684 64.400 C 213.021 62.310,214.317 60.240,214.564 59.800 C 214.811 59.360,215.724 57.920,216.594 56.600 C 217.464 55.280,218.361 53.897,218.588 53.526 C 222.205 47.614,224.509 43.940,227.902 38.673 L 230.403 34.788 242.696 34.894 C 256.880 35.016,256.260 34.796,253.728 38.813 C 252.888 40.146,251.930 41.665,251.600 42.188 C 251.270 42.710,249.865 44.997,248.478 47.269 C 247.091 49.541,244.706 53.380,243.179 55.800 C 241.651 58.220,239.398 61.820,238.173 63.800 C 236.947 65.780,235.385 68.300,234.701 69.400 C 234.016 70.500,231.390 74.730,228.864 78.800 C 226.338 82.870,223.626 87.221,222.836 88.468 C 222.046 89.715,220.924 91.515,220.341 92.468 C 219.759 93.421,218.184 95.962,216.841 98.115 C 215.499 100.269,214.400 102.296,214.400 102.621 C 214.400 103.098,222.169 115.154,225.729 120.200 C 226.194 120.860,227.157 122.300,227.869 123.400 C 228.580 124.500,229.307 125.580,229.484 125.800 C 229.858 126.264,231.206 128.293,231.795 129.276 C 232.018 129.648,236.520 136.396,241.800 144.272 C 247.080 152.147,251.580 158.903,251.800 159.284 C 252.020 159.665,254.235 162.979,256.722 166.647 C 260.022 171.513,261.125 173.435,260.803 173.758 C 260.329 174.232,236.870 174.640,234.556 174.214 C 233.501 174.020,211.579 142.201,204.603 130.738 C 200.355 123.757,200.206 123.709,197.401 128.400 C 196.546 129.830,194.846 132.571,193.623 134.492 C 192.400 136.412,190.752 139.022,189.960 140.292 C 188.231 143.063,184.928 148.346,176.933 161.130 C 175.650 163.181,174.330 165.283,174.000 165.801 C 173.670 166.319,172.640 167.971,171.712 169.471 C 170.783 170.972,169.669 172.650,169.235 173.200 L 168.447 174.200 156.323 174.321 C 139.531 174.490,140.177 174.760,143.902 169.123 C 145.166 167.211,147.550 163.534,149.200 160.952 C 150.850 158.369,152.920 155.149,153.800 153.794 C 154.680 152.440,156.750 149.228,158.400 146.656 C 160.050 144.084,162.768 139.870,164.441 137.290 C 166.113 134.711,168.823 130.530,170.463 128.000 C 172.104 125.470,174.335 122.004,175.423 120.299 C 176.510 118.593,179.335 114.238,181.700 110.621 C 184.065 107.003,186.000 103.840,186.000 103.590 C 186.000 103.099,185.927 102.983,177.922 90.800 C 174.959 86.290,171.667 81.250,170.607 79.600 C 169.548 77.950,166.665 73.540,164.203 69.800 C 161.740 66.060,158.494 61.110,156.991 58.800 C 152.999 52.669,145.345 40.968,143.546 38.247 C 141.180 34.670,140.725 34.800,155.579 34.800 C 168.223 34.800,168.263 34.803,169.073 35.700 " stroke="none" fill="#ebebd3" fill-rule="evenodd"></path><path id="path1" d="M143.627 35.600 C 142.705 35.828,142.575 35.587,148.376 44.387 C 150.039 46.911,151.580 49.280,151.800 49.652 C 152.020 50.025,152.830 51.277,153.600 52.435 C 154.370 53.593,155.942 55.994,157.092 57.770 C 159.588 61.623,159.986 62.212,160.900 63.409 C 161.285 63.914,161.600 64.421,161.600 64.538 C 161.600 64.654,162.365 65.896,163.300 67.298 C 164.235 68.700,165.180 70.136,165.400 70.491 C 165.620 70.845,166.502 72.184,167.360 73.467 C 173.029 81.947,175.200 85.267,175.200 85.457 C 175.200 85.576,175.515 86.086,175.900 86.591 C 176.814 87.788,177.212 88.377,179.708 92.230 C 180.858 94.006,182.430 96.407,183.200 97.565 C 183.970 98.723,184.787 99.995,185.016 100.393 C 185.244 100.790,185.672 101.404,185.966 101.759 C 187.284 103.347,187.171 103.559,175.219 121.800 C 173.346 124.660,171.630 127.316,171.406 127.701 C 171.183 128.087,169.830 130.202,168.400 132.400 C 166.970 134.598,165.620 136.714,165.400 137.102 C 165.180 137.490,163.462 140.145,161.582 143.003 C 159.702 145.862,157.728 148.920,157.195 149.800 C 156.662 150.680,156.084 151.580,155.911 151.800 C 155.738 152.020,154.907 153.280,154.064 154.600 C 153.221 155.920,151.717 158.260,150.723 159.800 C 149.729 161.340,148.051 163.950,146.995 165.600 C 145.940 167.250,144.460 169.540,143.707 170.688 C 141.728 173.706,141.297 173.600,155.530 173.600 L 168.213 173.600 169.605 171.500 C 170.370 170.345,171.177 169.094,171.398 168.720 C 172.318 167.165,181.250 152.917,184.137 148.399 C 185.052 146.968,186.016 145.438,186.279 144.999 C 189.222 140.093,190.175 138.570,190.407 138.400 C 190.557 138.290,190.917 137.750,191.205 137.200 C 191.494 136.650,192.646 134.756,193.765 132.991 C 196.235 129.095,196.448 128.751,198.016 126.100 C 199.506 123.583,200.569 123.364,201.825 125.317 C 202.279 126.023,204.271 129.030,206.252 132.000 C 208.233 134.970,213.297 142.620,217.506 149.000 C 221.715 155.380,225.716 161.410,226.398 162.400 C 227.080 163.390,228.816 166.000,230.256 168.200 C 231.695 170.400,233.155 172.515,233.499 172.900 C 234.277 173.772,260.000 174.002,260.000 173.138 C 260.000 172.884,256.625 167.609,252.500 161.417 C 248.375 155.225,244.820 149.867,244.600 149.510 C 244.380 149.154,240.162 142.863,235.227 135.531 C 230.292 128.199,224.763 119.950,222.939 117.200 C 221.115 114.450,219.438 111.930,219.212 111.600 C 218.986 111.270,217.994 109.830,217.007 108.400 C 216.020 106.970,215.041 105.412,214.831 104.939 C 214.621 104.465,214.258 103.960,214.025 103.815 C 213.398 103.428,213.509 101.774,214.200 101.200 C 214.530 100.926,214.800 100.535,214.800 100.330 C 214.800 100.125,215.577 98.752,216.526 97.279 C 218.460 94.278,219.942 91.914,222.468 87.800 C 223.413 86.260,224.325 84.940,224.494 84.867 C 224.662 84.793,224.800 84.559,224.800 84.345 C 224.800 84.132,225.581 82.752,226.536 81.279 C 227.491 79.805,228.759 77.790,229.353 76.800 C 230.828 74.345,231.155 73.811,233.027 70.809 C 233.921 69.374,235.082 67.480,235.606 66.600 C 236.129 65.720,236.670 64.910,236.808 64.800 C 236.946 64.690,237.182 64.330,237.334 64.000 C 237.485 63.670,237.922 62.921,238.304 62.335 C 238.687 61.750,239.864 59.860,240.921 58.135 C 241.978 56.411,243.995 53.200,245.405 51.000 C 246.815 48.800,248.166 46.554,248.409 46.008 C 248.652 45.463,248.989 44.923,249.158 44.808 C 249.457 44.607,252.203 40.183,253.769 37.381 C 254.192 36.624,254.441 35.908,254.323 35.789 C 253.962 35.429,230.679 35.551,230.431 35.915 C 229.762 36.897,222.083 49.067,221.400 50.229 C 220.960 50.977,218.710 54.568,216.400 58.209 C 214.090 61.850,211.930 65.268,211.600 65.804 C 210.758 67.174,205.844 74.926,203.102 79.210 C 201.838 81.184,200.663 82.800,200.491 82.800 C 200.008 82.800,198.400 81.595,198.400 81.232 C 198.400 81.055,196.150 77.541,193.400 73.424 C 190.650 69.306,188.400 65.842,188.400 65.726 C 188.400 65.610,187.860 64.833,187.200 64.000 C 186.540 63.167,186.000 62.368,186.000 62.226 C 186.000 62.083,185.813 61.749,185.585 61.483 C 184.955 60.749,171.200 39.960,171.200 39.742 C 171.200 39.638,170.556 38.708,169.768 37.676 L 168.336 35.800 156.386 35.600 C 149.813 35.490,144.072 35.490,143.627 35.600 M0.000 212.800 C 0.000 221.067,0.142 225.600,0.400 225.600 C 0.641 225.600,0.800 227.252,0.800 229.757 C 0.800 233.084,0.920 233.960,1.400 234.145 C 1.860 234.321,2.000 235.079,2.000 237.387 C 2.000 239.799,2.120 240.400,2.600 240.400 C 3.070 240.400,3.200 240.947,3.200 242.924 C 3.200 244.523,3.415 245.731,3.787 246.224 C 4.110 246.651,4.380 247.842,4.387 248.871 C 4.395 249.987,4.642 250.985,5.000 251.343 C 5.338 251.681,5.600 252.659,5.600 253.584 C 5.600 254.674,5.802 255.302,6.200 255.455 C 6.607 255.612,6.800 256.250,6.800 257.443 C 6.800 258.667,7.043 259.443,7.600 260.000 C 8.126 260.526,8.400 261.333,8.400 262.357 C 8.400 263.372,8.609 263.995,9.000 264.145 C 9.397 264.297,9.600 264.924,9.600 266.000 C 9.600 267.076,9.803 267.703,10.200 267.855 C 10.544 267.987,10.800 268.585,10.800 269.255 C 10.800 269.926,11.056 270.523,11.400 270.655 C 11.792 270.806,12.000 271.429,12.000 272.455 C 12.000 273.482,12.208 274.105,12.600 274.255 C 12.930 274.382,13.200 274.929,13.200 275.471 C 13.200 276.014,13.470 276.727,13.800 277.057 C 14.130 277.387,14.400 278.081,14.400 278.600 C 14.400 279.119,14.670 279.813,15.000 280.143 C 15.330 280.473,15.600 281.211,15.600 281.784 C 15.600 282.357,15.850 282.921,16.155 283.038 C 16.460 283.155,16.816 283.780,16.945 284.426 C 17.082 285.109,17.435 285.600,17.790 285.600 C 18.201 285.600,18.400 285.991,18.400 286.800 C 18.400 287.600,18.600 288.000,19.000 288.000 C 19.401 288.000,19.600 288.401,19.600 289.213 C 19.600 289.921,19.849 290.521,20.200 290.655 C 20.542 290.787,20.800 291.383,20.800 292.043 C 20.800 292.805,21.005 293.200,21.400 293.200 C 21.800 293.200,22.000 293.600,22.000 294.400 C 22.000 295.200,22.200 295.600,22.600 295.600 C 22.975 295.600,23.200 295.979,23.200 296.613 C 23.200 297.169,23.470 297.729,23.800 297.855 C 24.130 297.982,24.400 298.413,24.400 298.814 C 24.400 299.215,24.635 299.781,24.922 300.071 C 25.210 300.362,25.564 300.915,25.710 301.300 C 25.856 301.685,26.138 302.000,26.337 302.000 C 26.537 302.000,26.808 302.540,26.940 303.200 C 27.081 303.904,27.432 304.400,27.790 304.400 C 28.176 304.400,28.400 304.772,28.400 305.413 C 28.400 305.969,28.670 306.529,29.000 306.655 C 29.330 306.782,29.600 307.136,29.600 307.443 C 29.600 307.749,29.870 308.000,30.200 308.000 C 30.600 308.000,30.800 308.400,30.800 309.200 C 30.800 310.000,31.000 310.400,31.400 310.400 C 31.730 310.400,32.000 310.676,32.000 311.013 C 32.000 311.349,32.270 311.729,32.600 311.855 C 32.930 311.982,33.200 312.522,33.200 313.055 C 33.200 313.589,33.470 314.129,33.800 314.255 C 34.130 314.382,34.400 314.736,34.400 315.043 C 34.400 315.349,34.625 315.605,34.900 315.610 C 35.175 315.616,35.741 316.360,36.158 317.263 C 36.575 318.166,37.250 318.993,37.658 319.099 C 38.066 319.206,38.400 319.632,38.400 320.047 C 38.400 320.461,38.670 320.800,39.000 320.800 C 39.373 320.800,39.600 321.178,39.600 321.800 C 39.600 322.422,39.827 322.800,40.200 322.800 C 40.533 322.800,40.800 323.156,40.800 323.600 C 40.800 324.044,41.067 324.400,41.400 324.400 C 41.730 324.400,42.000 324.670,42.000 325.000 C 42.000 325.330,42.270 325.600,42.600 325.600 C 42.930 325.600,43.200 325.870,43.200 326.200 C 43.200 326.530,43.368 326.800,43.573 326.800 C 43.778 326.800,44.066 327.177,44.212 327.638 C 44.358 328.099,45.360 329.377,46.439 330.478 C 47.518 331.580,48.400 332.643,48.400 332.841 C 48.400 333.038,48.670 333.200,49.000 333.200 C 49.330 333.200,49.600 333.470,49.600 333.800 C 49.600 334.130,49.870 334.400,50.200 334.400 C 50.530 334.400,50.800 334.670,50.800 335.000 C 50.800 335.330,51.070 335.600,51.400 335.600 C 51.730 335.600,52.000 335.841,52.000 336.136 C 52.000 336.431,52.675 337.383,53.500 338.252 C 54.325 339.120,55.570 340.499,56.266 341.316 C 56.962 342.132,57.727 342.800,57.966 342.800 C 58.205 342.800,58.410 343.025,58.423 343.300 C 58.448 343.847,62.134 346.800,62.792 346.800 C 63.017 346.800,63.200 347.070,63.200 347.400 C 63.200 347.730,63.470 348.000,63.800 348.000 C 64.130 348.000,64.400 348.270,64.400 348.600 C 64.400 348.930,64.670 349.200,65.000 349.200 C 65.330 349.200,65.600 349.419,65.600 349.687 C 65.600 350.211,67.504 352.000,68.062 352.000 C 68.248 352.000,68.400 352.270,68.400 352.600 C 68.400 352.930,68.571 353.200,68.779 353.200 C 68.988 353.200,69.649 353.654,70.248 354.210 C 70.847 354.765,71.757 355.324,72.269 355.453 C 72.781 355.582,73.200 355.937,73.200 356.243 C 73.200 356.550,73.470 356.800,73.800 356.800 C 74.130 356.800,74.400 357.070,74.400 357.400 C 74.400 357.730,74.651 358.000,74.957 358.000 C 75.264 358.000,75.618 358.270,75.745 358.600 C 75.871 358.930,76.251 359.200,76.587 359.200 C 76.924 359.200,77.200 359.384,77.200 359.609 C 77.200 359.833,77.695 360.237,78.300 360.506 C 78.905 360.774,79.845 361.490,80.389 362.097 C 80.933 362.704,81.608 363.200,81.889 363.200 C 82.170 363.200,82.400 363.377,82.400 363.592 C 82.400 363.808,82.837 364.094,83.371 364.228 C 83.905 364.363,84.439 364.726,84.559 365.036 C 84.678 365.346,85.031 365.600,85.345 365.600 C 85.658 365.600,86.018 365.870,86.145 366.200 C 86.271 366.530,86.831 366.800,87.387 366.800 C 88.021 366.800,88.400 367.025,88.400 367.400 C 88.400 367.730,88.651 368.000,88.957 368.000 C 89.264 368.000,89.618 368.270,89.745 368.600 C 89.871 368.930,90.431 369.200,90.987 369.200 C 91.628 369.200,92.000 369.424,92.000 369.810 C 92.000 370.145,92.405 370.577,92.900 370.770 C 93.395 370.962,94.483 371.588,95.318 372.160 C 96.153 372.732,97.188 373.200,97.618 373.200 C 98.048 373.200,98.400 373.470,98.400 373.800 C 98.400 374.130,98.738 374.400,99.151 374.400 C 99.564 374.400,100.126 374.670,100.400 375.000 C 100.674 375.330,101.127 375.600,101.406 375.600 C 101.686 375.600,102.018 375.870,102.145 376.200 C 102.271 376.530,102.811 376.800,103.345 376.800 C 103.878 376.800,104.418 377.070,104.545 377.400 C 104.671 377.730,105.236 378.000,105.800 378.000 C 106.364 378.000,106.929 378.270,107.055 378.600 C 107.187 378.942,107.783 379.200,108.443 379.200 C 109.213 379.200,109.600 379.404,109.600 379.810 C 109.600 380.168,110.096 380.519,110.800 380.660 C 111.460 380.792,112.000 381.043,112.000 381.218 C 112.000 381.393,112.528 381.652,113.172 381.794 C 113.817 381.936,114.559 382.310,114.821 382.626 C 115.083 382.942,115.707 383.200,116.206 383.200 C 116.706 383.200,117.218 383.470,117.345 383.800 C 117.476 384.143,118.073 384.400,118.738 384.400 C 119.378 384.400,120.126 384.670,120.400 385.000 C 120.674 385.330,121.397 385.600,122.006 385.600 C 122.622 385.600,123.217 385.866,123.345 386.200 C 123.477 386.544,124.074 386.800,124.745 386.800 C 125.415 386.800,126.013 387.056,126.145 387.400 C 126.297 387.796,126.923 388.000,127.987 388.000 C 129.154 388.000,129.600 388.166,129.600 388.600 C 129.600 389.044,130.067 389.200,131.400 389.200 C 132.708 389.200,133.200 389.359,133.200 389.782 C 133.200 390.145,133.765 390.455,134.700 390.606 C 135.525 390.739,136.678 391.107,137.262 391.424 C 137.846 391.741,138.861 392.000,139.519 392.000 C 140.213 392.000,140.811 392.252,140.945 392.600 C 141.098 392.998,141.726 393.200,142.816 393.200 C 143.741 393.200,144.719 393.462,145.057 393.800 C 145.425 394.167,146.405 394.400,147.586 394.400 C 148.931 394.400,149.584 394.581,149.745 395.000 C 149.910 395.431,150.584 395.600,152.138 395.600 C 153.574 395.600,154.470 395.802,154.800 396.200 C 155.153 396.625,156.087 396.800,158.006 396.800 C 160.044 396.800,160.771 396.948,160.945 397.400 C 161.121 397.859,161.874 398.000,164.145 398.000 C 166.415 398.000,167.169 398.141,167.345 398.600 C 167.530 399.083,168.434 399.200,171.987 399.200 C 174.662 399.200,176.400 399.358,176.400 399.600 C 176.400 399.862,184.600 400.000,200.200 400.000 C 215.800 400.000,224.000 399.862,224.000 399.600 C 224.000 399.359,225.671 399.200,228.213 399.200 C 231.588 399.200,232.471 399.081,232.655 398.600 C 232.833 398.137,233.605 398.000,236.043 398.000 C 238.583 398.000,239.200 397.883,239.200 397.400 C 239.200 396.920,239.801 396.800,242.213 396.800 C 244.521 396.800,245.279 396.660,245.455 396.200 C 245.621 395.769,246.296 395.600,247.855 395.600 C 249.415 395.600,250.090 395.431,250.255 395.000 C 250.416 394.581,251.069 394.400,252.414 394.400 C 253.595 394.400,254.575 394.167,254.943 393.800 C 255.281 393.462,256.259 393.200,257.184 393.200 C 258.274 393.200,258.902 392.998,259.055 392.600 C 259.204 392.212,259.824 392.000,260.814 392.000 C 261.655 392.000,262.613 391.730,262.943 391.400 C 263.273 391.070,263.991 390.800,264.539 390.800 C 265.947 390.800,266.800 390.406,266.800 389.757 C 266.800 389.363,267.328 389.200,268.600 389.200 C 269.933 389.200,270.400 389.044,270.400 388.600 C 270.400 388.166,270.846 388.000,272.013 388.000 C 273.077 388.000,273.703 387.796,273.855 387.400 C 273.997 387.030,274.605 386.800,275.443 386.800 C 276.383 386.800,276.800 386.615,276.800 386.200 C 276.800 385.803,277.197 385.600,277.971 385.600 C 278.616 385.600,279.413 385.330,279.743 385.000 C 280.073 384.670,280.811 384.400,281.384 384.400 C 281.957 384.400,282.529 384.130,282.655 383.800 C 282.782 383.470,283.303 383.200,283.814 383.200 C 284.325 383.200,284.982 382.960,285.275 382.667 C 285.568 382.375,286.301 382.011,286.904 381.860 C 287.507 381.709,288.000 381.408,288.000 381.192 C 288.000 380.977,288.362 380.800,288.804 380.800 C 289.246 380.800,289.916 380.440,290.293 380.000 C 290.670 379.560,291.393 379.200,291.901 379.200 C 292.409 379.200,292.929 378.930,293.055 378.600 C 293.182 378.270,293.722 378.000,294.255 378.000 C 294.789 378.000,295.329 377.730,295.455 377.400 C 295.582 377.070,296.107 376.800,296.623 376.800 C 297.138 376.800,297.704 376.575,297.880 376.300 C 298.056 376.024,299.055 375.382,300.100 374.872 C 301.145 374.361,302.000 373.777,302.000 373.572 C 302.000 373.367,302.456 373.200,303.013 373.200 C 303.569 373.200,304.129 372.930,304.255 372.600 C 304.382 372.270,304.723 372.000,305.014 372.000 C 305.305 372.000,305.781 371.765,306.071 371.478 C 306.362 371.190,306.915 370.836,307.300 370.690 C 307.685 370.544,308.000 370.149,308.000 369.813 C 308.000 369.399,308.389 369.200,309.200 369.200 C 310.000 369.200,310.400 369.000,310.400 368.600 C 310.400 368.270,310.676 368.000,311.013 368.000 C 311.349 368.000,311.729 367.730,311.855 367.400 C 311.982 367.070,312.522 366.800,313.055 366.800 C 313.589 366.800,314.129 366.530,314.255 366.200 C 314.382 365.870,314.736 365.600,315.043 365.600 C 315.349 365.600,315.600 365.350,315.600 365.043 C 315.600 364.737,316.019 364.382,316.531 364.253 C 317.043 364.124,317.953 363.565,318.552 363.010 C 319.151 362.454,319.772 362.000,319.932 362.000 C 320.091 362.000,320.530 361.640,320.907 361.200 C 321.284 360.760,321.864 360.400,322.196 360.400 C 322.528 360.400,322.800 360.130,322.800 359.800 C 322.800 359.467,323.156 359.200,323.600 359.200 C 324.044 359.200,324.400 358.933,324.400 358.600 C 324.400 358.270,324.670 358.000,325.000 358.000 C 325.330 358.000,325.600 357.730,325.600 357.400 C 325.600 357.070,325.787 356.800,326.016 356.800 C 326.490 356.800,328.931 355.155,329.133 354.700 C 329.207 354.535,329.522 354.400,329.833 354.400 C 330.145 354.400,330.400 354.130,330.400 353.800 C 330.400 353.470,330.572 353.200,330.783 353.200 C 331.340 353.200,334.400 350.207,334.400 349.662 C 334.400 349.408,334.670 349.200,335.000 349.200 C 335.330 349.200,335.600 348.930,335.600 348.600 C 335.600 348.270,335.843 348.000,336.140 348.000 C 337.442 348.000,348.000 337.438,348.000 336.136 C 348.000 335.841,348.270 335.600,348.600 335.600 C 348.930 335.600,349.200 335.330,349.200 335.000 C 349.200 334.670,349.403 334.400,349.652 334.400 C 350.154 334.400,354.400 330.114,354.400 329.607 C 354.400 329.430,354.670 329.182,355.000 329.055 C 355.330 328.929,355.600 328.549,355.600 328.213 C 355.600 327.876,355.777 327.600,355.992 327.600 C 356.208 327.600,356.498 327.150,356.636 326.600 C 356.774 326.050,357.137 325.600,357.443 325.600 C 357.750 325.600,358.000 325.330,358.000 325.000 C 358.000 324.670,358.270 324.400,358.600 324.400 C 358.930 324.400,359.200 324.170,359.200 323.889 C 359.200 323.608,359.560 323.070,360.000 322.693 C 360.440 322.316,360.800 321.755,360.800 321.447 C 360.800 321.138,361.070 320.782,361.400 320.655 C 361.730 320.529,362.000 320.149,362.000 319.813 C 362.000 319.476,362.270 319.200,362.600 319.200 C 362.930 319.200,363.200 319.007,363.200 318.771 C 363.200 318.536,363.470 318.073,363.800 317.743 C 364.130 317.413,364.400 316.796,364.400 316.371 C 364.400 315.947,364.670 315.600,365.000 315.600 C 365.330 315.600,365.600 315.349,365.600 315.043 C 365.600 314.736,365.870 314.382,366.200 314.255 C 366.530 314.129,366.800 313.569,366.800 313.013 C 366.800 312.379,367.025 312.000,367.400 312.000 C 367.730 312.000,368.000 311.724,368.000 311.387 C 368.000 311.051,368.270 310.671,368.600 310.545 C 368.942 310.413,369.200 309.817,369.200 309.157 C 369.200 308.485,369.414 308.000,369.711 308.000 C 370.400 308.000,371.526 306.636,371.827 305.435 C 371.962 304.898,372.326 304.361,372.636 304.241 C 372.946 304.122,373.200 303.681,373.200 303.262 C 373.200 302.842,373.470 302.274,373.800 302.000 C 374.130 301.726,374.400 301.273,374.400 300.994 C 374.400 300.714,374.670 300.382,375.000 300.255 C 375.330 300.129,375.600 299.569,375.600 299.013 C 375.600 298.379,375.825 298.000,376.200 298.000 C 376.600 298.000,376.800 297.600,376.800 296.800 C 376.800 296.000,377.000 295.600,377.400 295.600 C 377.800 295.600,378.000 295.200,378.000 294.400 C 378.000 293.600,378.200 293.200,378.600 293.200 C 379.000 293.200,379.200 292.800,379.200 292.000 C 379.200 291.241,379.405 290.800,379.757 290.800 C 380.361 290.800,380.800 289.962,380.800 288.810 C 380.800 288.412,381.070 287.982,381.400 287.855 C 381.730 287.729,382.000 287.189,382.000 286.655 C 382.000 286.122,382.270 285.582,382.600 285.455 C 382.930 285.329,383.200 284.789,383.200 284.255 C 383.200 283.722,383.470 283.182,383.800 283.055 C 384.144 282.923,384.400 282.326,384.400 281.655 C 384.400 280.985,384.656 280.387,385.000 280.255 C 385.330 280.129,385.606 279.614,385.613 279.113 C 385.620 278.611,385.890 277.851,386.213 277.424 C 386.536 276.996,386.800 276.161,386.800 275.566 C 386.800 274.972,387.070 274.382,387.400 274.255 C 387.743 274.124,388.000 273.527,388.000 272.862 C 388.000 272.222,388.270 271.474,388.600 271.200 C 388.930 270.926,389.200 270.184,389.200 269.551 C 389.200 268.918,389.560 268.040,390.000 267.600 C 390.440 267.160,390.800 266.371,390.800 265.846 C 390.800 265.321,391.069 264.376,391.398 263.746 C 391.726 263.116,391.996 262.182,391.998 261.671 C 391.999 261.161,392.270 260.473,392.600 260.143 C 392.954 259.789,393.200 258.811,393.200 257.759 C 393.200 256.542,393.391 255.902,393.800 255.745 C 394.218 255.584,394.400 254.933,394.400 253.600 C 394.400 252.267,394.582 251.616,395.000 251.455 C 395.431 251.290,395.600 250.615,395.600 249.055 C 395.600 247.496,395.769 246.821,396.200 246.655 C 396.660 246.479,396.800 245.721,396.800 243.413 C 396.800 241.001,396.920 240.400,397.400 240.400 C 397.879 240.400,398.000 239.805,398.000 237.443 C 398.000 235.183,398.142 234.431,398.600 234.255 C 399.075 234.073,399.200 233.232,399.200 230.213 C 399.200 227.938,399.361 226.400,399.600 226.400 C 399.859 226.400,400.000 221.733,400.000 213.200 L 400.000 200.000 200.000 200.000 L 0.000 200.000 0.000 212.800 M150.800 224.349 C 154.246 226.787,154.231 230.693,150.762 234.036 C 149.683 235.077,148.800 236.190,148.800 236.510 C 148.800 236.830,148.010 239.502,147.045 242.446 C 146.080 245.391,143.725 252.660,141.811 258.600 C 136.857 273.975,135.327 278.703,133.395 284.600 C 132.459 287.460,130.744 292.770,129.584 296.400 C 128.425 300.030,126.979 304.530,126.371 306.400 C 125.764 308.270,123.526 315.200,121.400 321.800 C 119.273 328.400,117.030 335.330,116.416 337.200 C 115.801 339.070,114.357 343.570,113.206 347.200 C 112.055 350.830,110.863 354.479,110.557 355.308 C 110.250 356.138,110.000 356.993,110.000 357.208 C 110.000 357.830,125.005 357.725,125.490 357.100 C 125.841 356.648,128.188 349.585,133.432 333.200 C 134.453 330.010,135.794 325.870,136.413 324.000 C 137.031 322.130,138.475 317.630,139.620 314.000 C 140.766 310.370,142.466 305.060,143.398 302.200 C 147.409 289.899,148.921 285.229,152.010 275.600 C 153.810 269.990,155.790 263.870,156.410 262.000 C 157.030 260.130,158.473 255.630,159.617 252.000 C 160.761 248.370,162.554 242.790,163.603 239.600 C 164.651 236.410,166.024 232.181,166.654 230.202 C 169.747 220.487,176.148 221.195,179.309 231.601 C 179.877 233.470,180.531 235.540,180.761 236.200 C 181.322 237.805,182.964 242.865,186.215 253.000 C 187.696 257.620,189.938 264.550,191.197 268.400 C 193.221 274.592,194.793 279.469,200.288 296.600 C 201.065 299.020,202.107 302.260,202.604 303.800 C 203.101 305.340,204.720 310.380,206.202 315.000 C 212.042 333.204,212.663 334.940,213.446 335.248 C 214.807 335.782,246.578 335.662,247.120 335.120 C 247.487 334.753,247.600 324.618,247.600 291.943 L 247.600 249.245 248.489 248.623 C 249.266 248.078,252.029 248.000,270.489 248.000 L 291.600 248.000 291.600 239.833 C 291.600 235.341,291.491 231.381,291.357 231.033 C 290.988 230.070,233.991 230.066,233.029 231.029 C 232.337 231.721,232.078 245.273,232.737 246.311 C 232.992 246.714,233.437 246.652,234.831 246.020 C 239.305 243.990,243.408 246.848,243.091 251.773 C 242.781 256.589,237.828 258.849,233.847 255.991 C 232.669 255.145,231.508 254.710,229.982 254.543 C 228.782 254.412,227.395 254.052,226.900 253.743 L 226.000 253.182 226.000 238.871 C 226.000 228.274,226.125 224.435,226.480 224.080 C 226.846 223.714,235.257 223.600,261.898 223.600 L 296.836 223.600 297.818 224.582 L 298.800 225.564 298.800 239.382 C 298.800 255.719,299.062 254.800,294.400 254.800 C 292.489 254.800,291.600 254.648,291.600 254.320 C 291.600 253.947,291.493 253.947,291.120 254.320 C 290.761 254.679,286.184 254.802,273.020 254.806 C 262.617 254.810,255.154 254.968,254.800 255.191 C 254.275 255.523,254.175 260.903,254.000 298.324 C 253.834 333.754,253.706 341.191,253.251 341.739 C 252.526 342.612,209.422 342.767,208.313 341.900 C 207.961 341.625,207.000 339.330,206.176 336.800 C 203.045 327.175,195.756 304.654,193.101 296.400 C 192.004 292.990,190.603 288.670,189.988 286.800 C 189.372 284.930,187.397 278.810,185.599 273.200 C 183.801 267.590,181.561 260.660,180.622 257.800 C 179.683 254.940,177.970 249.630,176.816 246.000 C 175.662 242.370,174.447 238.590,174.115 237.600 C 173.783 236.610,173.438 235.550,173.348 235.246 C 173.145 234.562,171.600 235.804,171.600 236.651 C 171.600 236.941,170.986 239.028,170.236 241.289 C 169.486 243.550,167.396 249.990,165.591 255.600 C 163.786 261.210,161.544 268.140,160.607 271.000 C 159.671 273.860,157.958 279.170,156.802 282.800 C 155.645 286.430,154.022 291.470,153.194 294.000 C 152.367 296.530,150.216 303.190,148.415 308.800 C 146.614 314.410,144.635 320.530,144.018 322.400 C 143.401 324.270,141.685 329.580,140.205 334.200 C 132.501 358.249,131.112 362.298,130.142 363.514 L 129.277 364.600 118.738 364.571 C 103.163 364.528,103.468 364.545,102.380 363.665 C 101.038 362.578,101.589 360.617,113.192 325.200 C 114.021 322.670,115.644 317.630,116.798 314.000 C 117.953 310.370,119.664 305.060,120.601 302.200 C 121.538 299.340,123.781 292.410,125.585 286.800 C 130.520 271.456,131.547 268.274,133.400 262.600 C 134.334 259.740,135.820 255.150,136.701 252.400 C 137.582 249.650,139.242 244.541,140.389 241.047 C 142.505 234.601,142.549 234.262,141.772 230.461 C 140.756 225.494,146.716 221.459,150.800 224.349 M275.087 259.242 C 278.787 261.033,279.424 265.559,276.452 268.942 C 275.438 270.095,275.455 334.026,276.469 335.040 C 277.043 335.615,278.557 335.746,287.216 335.969 C 300.203 336.305,298.802 334.614,298.795 349.944 C 298.789 362.802,298.753 363.187,297.512 363.962 C 296.269 364.739,194.578 364.611,193.400 363.831 C 192.960 363.540,192.370 362.514,192.090 361.551 C 191.378 359.110,185.497 340.959,183.228 334.200 L 181.348 328.600 165.583 328.480 C 146.058 328.331,146.828 328.736,149.758 320.170 C 150.504 317.987,152.131 313.050,153.372 309.200 C 156.265 300.227,155.540 300.800,163.995 300.800 C 172.660 300.800,172.307 301.183,170.035 294.262 C 169.085 291.368,167.865 287.650,167.323 286.000 C 166.489 283.457,166.030 282.723,164.309 281.183 C 160.745 277.992,161.240 273.270,165.354 271.232 C 170.268 268.796,175.258 273.524,173.356 278.814 C 172.706 280.621,172.704 280.872,173.318 282.673 C 173.679 283.733,174.276 285.500,174.644 286.600 C 175.013 287.700,176.291 291.480,177.485 295.000 C 182.091 308.583,182.768 307.355,170.578 307.528 C 159.687 307.682,161.300 306.456,158.029 317.069 C 156.517 321.973,155.429 321.600,171.238 321.600 L 184.715 321.600 185.882 322.700 C 187.070 323.820,187.347 324.588,193.496 343.800 C 196.361 352.754,197.681 356.564,198.104 357.100 C 198.871 358.073,291.063 357.803,291.586 356.826 C 292.050 355.960,292.111 344.623,291.658 343.474 C 291.391 342.798,290.663 342.751,280.924 342.786 L 270.477 342.824 269.631 341.749 L 268.785 340.673 268.809 305.086 C 268.829 274.894,268.746 269.400,268.264 268.849 C 264.536 264.586,266.936 258.792,272.574 258.447 C 272.999 258.421,274.130 258.779,275.087 259.242 " stroke="none" fill="#14444c" fill-rule="evenodd"></path><path id="path2" d="M248.489 248.623 L 247.600 249.245 247.600 291.974 C 247.600 328.580,247.518 334.770,247.027 335.178 C 246.598 335.534,242.080 335.622,229.087 335.527 L 211.721 335.400 210.882 337.800 C 210.421 339.120,209.989 340.650,209.922 341.200 L 209.800 342.200 231.248 342.303 C 250.832 342.398,252.744 342.349,253.248 341.742 C 253.707 341.189,253.834 333.863,254.000 298.324 C 254.175 260.903,254.275 255.523,254.800 255.191 C 255.154 254.968,262.630 254.810,273.053 254.806 L 290.707 254.800 290.948 253.900 C 291.258 252.743,291.258 250.057,290.948 248.900 L 290.707 248.000 270.042 248.000 C 251.987 248.000,249.266 248.079,248.489 248.623 M165.185 271.300 C 161.244 273.287,160.821 278.060,164.309 281.183 C 166.030 282.723,166.489 283.457,167.323 286.000 C 167.865 287.650,169.085 291.368,170.035 294.262 C 172.307 301.183,172.660 300.800,163.995 300.800 C 155.540 300.800,156.265 300.227,153.372 309.200 C 152.131 313.050,150.504 317.987,149.758 320.170 C 146.823 328.753,146.059 328.355,165.585 328.419 L 181.344 328.470 182.086 327.535 C 186.914 321.456,187.578 321.820,171.429 321.695 C 155.448 321.570,156.527 321.941,158.023 317.087 C 161.300 306.453,159.686 307.682,170.578 307.528 C 182.768 307.355,182.091 308.583,177.485 295.000 C 176.291 291.480,175.013 287.700,174.644 286.600 C 174.276 285.500,173.679 283.733,173.318 282.673 C 172.704 280.872,172.706 280.621,173.356 278.814 C 175.294 273.426,170.220 268.761,165.185 271.300 " stroke="none" fill="#ca453f" fill-rule="evenodd"></path><path id="path3" d="M142.444 35.347 C 142.091 35.772,142.337 36.418,143.546 38.247 C 145.345 40.968,152.999 52.669,156.991 58.800 C 158.494 61.110,161.740 66.060,164.203 69.800 C 166.665 73.540,169.548 77.950,170.607 79.600 C 171.667 81.250,174.959 86.290,177.922 90.800 C 185.927 102.983,186.000 103.099,186.000 103.590 C 186.000 103.840,184.065 107.003,181.700 110.621 C 179.335 114.238,176.510 118.593,175.423 120.299 C 174.335 122.004,172.104 125.470,170.463 128.000 C 168.823 130.530,166.113 134.711,164.441 137.290 C 162.768 139.870,160.050 144.084,158.400 146.656 C 156.750 149.228,154.680 152.440,153.800 153.794 C 152.920 155.149,150.850 158.369,149.200 160.952 C 147.550 163.534,145.166 167.211,143.902 169.123 C 140.177 174.760,139.531 174.490,156.323 174.321 L 168.447 174.200 169.235 173.200 C 169.669 172.650,170.783 170.972,171.712 169.471 C 172.640 167.971,173.670 166.319,174.000 165.801 C 174.330 165.283,175.650 163.181,176.933 161.130 C 184.928 148.346,188.231 143.063,189.960 140.292 C 190.752 139.022,192.400 136.412,193.623 134.492 C 194.846 132.571,196.546 129.830,197.401 128.400 C 198.877 125.931,199.826 124.800,200.421 124.800 C 200.645 124.800,203.175 128.392,204.603 130.738 C 211.579 142.201,233.501 174.020,234.556 174.214 C 236.870 174.640,260.329 174.232,260.803 173.758 C 261.125 173.435,260.022 171.513,256.722 166.647 C 254.235 162.979,252.020 159.665,251.800 159.284 C 251.580 158.903,247.080 152.147,241.800 144.272 C 236.520 136.396,232.018 129.648,231.795 129.276 C 231.206 128.293,229.858 126.264,229.484 125.800 C 229.307 125.580,228.580 124.500,227.869 123.400 C 227.157 122.300,226.194 120.860,225.729 120.200 C 222.169 115.154,214.400 103.098,214.400 102.621 C 214.400 102.296,215.499 100.269,216.841 98.115 C 218.184 95.962,219.759 93.421,220.341 92.468 C 220.924 91.515,222.046 89.715,222.836 88.468 C 223.626 87.221,226.338 82.870,228.864 78.800 C 231.390 74.730,234.016 70.500,234.701 69.400 C 235.385 68.300,236.947 65.780,238.173 63.800 C 239.398 61.820,241.651 58.220,243.179 55.800 C 244.706 53.380,247.091 49.541,248.478 47.269 C 249.865 44.997,251.270 42.710,251.600 42.188 C 256.644 34.199,257.649 35.023,242.696 34.894 L 230.403 34.788 227.902 38.673 C 224.509 43.940,222.205 47.614,218.588 53.526 C 218.361 53.897,217.464 55.280,216.594 56.600 C 215.724 57.920,214.811 59.360,214.564 59.800 C 214.317 60.240,213.021 62.310,211.684 64.400 C 210.347 66.490,207.331 71.292,204.982 75.070 C 201.866 80.084,200.550 81.879,200.114 81.712 C 199.654 81.535,186.140 61.680,185.200 59.800 C 184.660 58.720,169.778 36.480,169.073 35.700 C 168.059 34.577,143.355 34.249,142.444 35.347 M169.768 37.676 C 170.556 38.708,171.200 39.638,171.200 39.742 C 171.200 39.960,184.955 60.749,185.585 61.483 C 185.813 61.749,186.000 62.083,186.000 62.226 C 186.000 62.368,186.540 63.167,187.200 64.000 C 187.860 64.833,188.400 65.610,188.400 65.726 C 188.400 65.842,190.650 69.306,193.400 73.424 C 196.150 77.541,198.400 81.055,198.400 81.232 C 198.400 81.595,200.008 82.800,200.491 82.800 C 200.663 82.800,201.838 81.184,203.102 79.210 C 205.844 74.926,210.758 67.174,211.600 65.804 C 211.930 65.268,214.090 61.850,216.400 58.209 C 218.710 54.568,220.960 50.977,221.400 50.229 C 222.083 49.067,229.762 36.897,230.431 35.915 C 230.679 35.551,253.962 35.429,254.323 35.789 C 254.441 35.908,254.192 36.624,253.769 37.381 C 252.203 40.183,249.457 44.607,249.158 44.808 C 248.989 44.923,248.652 45.463,248.409 46.008 C 248.166 46.554,246.815 48.800,245.405 51.000 C 243.995 53.200,241.978 56.411,240.921 58.135 C 239.864 59.860,238.687 61.750,238.304 62.335 C 237.922 62.921,237.485 63.670,237.334 64.000 C 237.182 64.330,236.946 64.690,236.808 64.800 C 236.670 64.910,236.129 65.720,235.606 66.600 C 235.082 67.480,233.921 69.374,233.027 70.809 C 231.155 73.811,230.828 74.345,229.353 76.800 C 228.759 77.790,227.491 79.805,226.536 81.279 C 225.581 82.752,224.800 84.132,224.800 84.345 C 224.800 84.559,224.662 84.793,224.494 84.867 C 224.325 84.940,223.413 86.260,222.468 87.800 C 219.942 91.914,218.460 94.278,216.526 97.279 C 215.577 98.752,214.800 100.125,214.800 100.330 C 214.800 100.535,214.530 100.926,214.200 101.200 C 213.509 101.774,213.398 103.428,214.025 103.815 C 214.258 103.960,214.621 104.465,214.831 104.939 C 215.041 105.412,216.020 106.970,217.007 108.400 C 217.994 109.830,218.986 111.270,219.212 111.600 C 219.438 111.930,221.115 114.450,222.939 117.200 C 224.763 119.950,230.292 128.199,235.227 135.531 C 240.162 142.863,244.380 149.154,244.600 149.510 C 244.820 149.867,248.375 155.225,252.500 161.417 C 256.625 167.609,260.000 172.884,260.000 173.138 C 260.000 174.002,234.277 173.772,233.499 172.900 C 233.155 172.515,231.695 170.400,230.256 168.200 C 228.816 166.000,227.080 163.390,226.398 162.400 C 225.716 161.410,221.715 155.380,217.506 149.000 C 213.297 142.620,208.233 134.970,206.252 132.000 C 204.271 129.030,202.279 126.023,201.825 125.317 C 200.569 123.364,199.506 123.583,198.016 126.100 C 196.448 128.751,196.235 129.095,193.765 132.991 C 192.646 134.756,191.494 136.650,191.205 137.200 C 190.917 137.750,190.557 138.290,190.407 138.400 C 190.175 138.570,189.222 140.093,186.279 144.999 C 186.016 145.438,185.052 146.968,184.137 148.399 C 181.250 152.917,172.318 167.165,171.398 168.720 C 171.177 169.094,170.370 170.345,169.605 171.500 L 168.213 173.600 155.530 173.600 C 141.297 173.600,141.728 173.706,143.707 170.688 C 144.460 169.540,145.940 167.250,146.995 165.600 C 148.051 163.950,149.729 161.340,150.723 159.800 C 151.717 158.260,153.221 155.920,154.064 154.600 C 154.907 153.280,155.738 152.020,155.911 151.800 C 156.084 151.580,156.662 150.680,157.195 149.800 C 157.728 148.920,159.702 145.862,161.582 143.003 C 163.462 140.145,165.180 137.490,165.400 137.102 C 165.620 136.714,166.970 134.598,168.400 132.400 C 169.830 130.202,171.183 128.087,171.406 127.701 C 171.630 127.316,173.346 124.660,175.219 121.800 C 187.171 103.559,187.284 103.347,185.966 101.759 C 185.672 101.404,185.244 100.790,185.016 100.393 C 184.787 99.995,183.970 98.723,183.200 97.565 C 182.430 96.407,180.858 94.006,179.708 92.230 C 177.212 88.377,176.814 87.788,175.900 86.591 C 175.515 86.086,175.200 85.576,175.200 85.457 C 175.200 85.267,173.029 81.947,167.360 73.467 C 166.502 72.184,165.620 70.845,165.400 70.491 C 165.180 70.136,164.235 68.700,163.300 67.298 C 162.365 65.896,161.600 64.654,161.600 64.538 C 161.600 64.421,161.285 63.914,160.900 63.409 C 159.986 62.212,159.588 61.623,157.092 57.770 C 155.942 55.994,154.370 53.593,153.600 52.435 C 152.830 51.277,152.020 50.025,151.800 49.652 C 151.580 49.280,150.039 46.911,148.376 44.387 C 142.575 35.587,142.705 35.828,143.627 35.600 C 144.072 35.490,149.813 35.490,156.386 35.600 L 168.336 35.800 169.768 37.676 M99.900 199.900 C 154.955 199.956,245.045 199.956,300.100 199.900 C 355.155 199.844,310.110 199.798,200.000 199.798 C 89.890 199.798,44.845 199.844,99.900 199.900 M171.000 223.885 C 168.598 224.463,168.199 225.300,163.792 239.000 C 162.306 243.620,160.597 248.930,159.994 250.800 C 159.391 252.670,157.687 257.980,156.209 262.600 C 154.730 267.220,153.104 272.260,152.596 273.800 C 152.088 275.340,150.197 281.190,148.394 286.800 C 146.591 292.410,144.348 299.340,143.409 302.200 C 142.471 305.060,140.766 310.370,139.620 314.000 C 138.475 317.630,137.031 322.130,136.413 324.000 C 135.794 325.870,134.453 330.010,133.432 333.200 C 128.188 349.585,125.841 356.648,125.490 357.100 C 125.204 357.468,123.128 357.600,117.600 357.600 C 109.006 357.600,109.517 357.385,108.588 361.390 C 107.749 365.006,107.227 364.841,119.138 364.711 L 129.277 364.600 130.142 363.514 C 131.112 362.297,132.502 358.248,140.205 334.200 C 141.685 329.580,143.401 324.270,144.018 322.400 C 144.635 320.530,146.614 314.410,148.415 308.800 C 150.216 303.190,152.367 296.530,153.194 294.000 C 154.022 291.470,155.645 286.430,156.802 282.800 C 157.958 279.170,159.671 273.860,160.607 271.000 C 161.544 268.140,163.786 261.210,165.591 255.600 C 167.396 249.990,169.486 243.550,170.236 241.289 C 170.986 239.028,171.600 236.941,171.600 236.651 C 171.600 235.804,173.145 234.562,173.348 235.246 C 173.438 235.550,173.783 236.610,174.115 237.600 C 174.447 238.590,175.662 242.370,176.816 246.000 C 177.970 249.630,179.683 254.940,180.622 257.800 C 181.561 260.660,183.801 267.590,185.599 273.200 C 187.397 278.810,189.372 284.930,189.988 286.800 C 190.603 288.670,192.004 292.990,193.101 296.400 C 195.756 304.654,203.045 327.175,206.176 336.800 C 207.574 341.096,208.322 342.400,209.389 342.400 C 209.629 342.400,209.866 341.905,209.915 341.300 C 210.048 339.659,211.716 335.240,212.250 335.112 C 212.558 335.038,212.068 333.030,210.806 329.200 C 209.756 326.010,207.684 319.620,206.202 315.000 C 204.720 310.380,203.101 305.340,202.604 303.800 C 202.107 302.260,201.065 299.020,200.288 296.600 C 194.793 279.469,193.221 274.592,191.197 268.400 C 189.938 264.550,187.696 257.620,186.215 253.000 C 182.964 242.865,181.322 237.805,180.761 236.200 C 180.531 235.540,179.877 233.470,179.309 231.601 C 177.273 224.898,175.116 222.895,171.000 223.885 M291.000 251.199 C 291.000 252.917,291.135 254.239,291.300 254.137 C 291.686 253.900,291.681 249.146,291.294 248.538 C 291.132 248.284,291.000 249.481,291.000 251.199 M270.800 258.747 C 266.435 259.850,265.088 265.218,268.264 268.849 C 268.746 269.400,268.829 274.894,268.809 305.086 C 268.785 340.603,268.787 340.675,269.622 341.737 L 270.458 342.800 280.538 342.800 L 290.617 342.800 293.360 339.772 C 294.880 338.094,295.946 336.596,295.752 336.414 C 295.558 336.233,291.300 336.009,286.288 335.916 C 278.345 335.770,277.088 335.660,276.488 335.060 C 275.457 334.028,275.422 270.114,276.452 268.942 C 280.727 264.076,276.916 257.202,270.800 258.747 " stroke="none" fill="#849c3c" fill-rule="evenodd"></path><path id="path4" d="M145.842 223.603 C 143.204 224.421,141.220 227.764,141.772 230.461 C 142.549 234.262,142.505 234.601,140.389 241.047 C 139.242 244.541,137.582 249.650,136.701 252.400 C 135.820 255.150,134.334 259.740,133.400 262.600 C 131.547 268.274,130.520 271.456,125.585 286.800 C 123.781 292.410,121.538 299.340,120.601 302.200 C 119.664 305.060,117.953 310.370,116.798 314.000 C 115.644 317.630,114.021 322.670,113.192 325.200 C 107.110 343.766,102.616 357.966,101.944 360.746 C 101.271 363.531,102.100 364.400,105.430 364.400 C 107.817 364.400,108.091 364.138,108.580 361.400 C 108.738 360.520,109.107 359.260,109.402 358.600 C 109.696 357.940,110.335 356.140,110.820 354.600 C 111.305 353.060,112.372 349.730,113.191 347.200 C 114.749 342.387,115.118 341.243,121.393 321.800 C 123.523 315.200,125.764 308.270,126.371 306.400 C 126.979 304.530,128.425 300.030,129.584 296.400 C 130.744 292.770,132.459 287.460,133.395 284.600 C 135.327 278.703,136.857 273.975,141.811 258.600 C 143.725 252.660,146.080 245.391,147.045 242.446 C 148.010 239.502,148.800 236.830,148.800 236.510 C 148.800 236.190,149.683 235.077,150.762 234.036 C 155.824 229.157,152.265 221.611,145.842 223.603 M226.480 224.080 C 226.125 224.435,226.000 228.274,226.000 238.871 L 226.000 253.182 226.900 253.743 C 227.395 254.052,228.782 254.412,229.982 254.543 C 231.508 254.710,232.669 255.145,233.847 255.991 C 237.828 258.849,242.781 256.589,243.091 251.773 C 243.408 246.848,239.305 243.990,234.831 246.020 C 233.437 246.652,232.992 246.714,232.737 246.311 C 232.078 245.273,232.337 231.721,233.029 231.029 C 234.035 230.022,290.990 230.076,291.377 231.084 C 291.521 231.460,291.621 235.555,291.598 240.184 C 291.576 244.813,291.567 249.995,291.579 251.700 L 291.600 254.800 294.400 254.800 C 299.062 254.800,298.800 255.719,298.800 239.382 L 298.800 225.564 297.818 224.582 L 296.836 223.600 261.898 223.600 C 235.257 223.600,226.846 223.714,226.480 224.080 M185.197 322.900 C 185.196 323.175,184.323 324.557,183.257 325.970 L 181.319 328.541 183.215 334.170 C 185.439 340.776,191.353 359.022,192.090 361.551 C 192.370 362.514,192.960 363.540,193.400 363.831 C 194.578 364.611,296.269 364.739,297.512 363.962 C 298.753 363.187,298.789 362.800,298.795 349.989 C 298.800 337.486,298.641 336.356,296.877 336.428 C 295.905 336.467,291.363 341.817,291.558 342.692 C 291.977 344.575,292.022 356.012,291.613 356.775 L 291.172 357.600 244.835 357.600 C 208.242 357.600,198.415 357.495,198.104 357.100 C 197.658 356.535,196.243 352.426,193.179 342.800 C 187.379 324.582,186.567 322.400,185.591 322.400 C 185.376 322.400,185.199 322.625,185.197 322.900 " stroke="none" fill="#2b89c7" fill-rule="evenodd"></path></g></svg>