<?xml version="1.0" standalone="no"?>
<!DOCTYPE svg PUBLIC "-//W3C//DTD SVG 20010904//EN"
 "http://www.w3.org/TR/2001/REC-SVG-20010904/DTD/svg10.dtd">
<svg version="1.0" xmlns="http://www.w3.org/2000/svg"
 width="320.000000pt" height="320.000000pt" viewBox="0 0 320.000000 320.000000"
 preserveAspectRatio="xMidYMid meet">

<g transform="translate(0.000000,320.000000) scale(0.100000,-0.100000)"
fill="#000000" stroke="none">
<path d="M1140 2915 c0 -2 79 -124 175 -270 96 -146 175 -269 175 -272 0 -5
-96 -156 -287 -450 l-73 -113 109 0 109 0 108 173 c59 94 116 185 127 200 l19
28 134 -200 134 -201 105 0 c58 0 105 2 105 6 0 3 -84 130 -186 284 l-186 278
163 263 c90 144 166 266 167 271 2 4 -41 8 -95 8 l-98 0 -120 -190 c-66 -104
-122 -190 -125 -189 -3 0 -61 85 -129 190 l-123 189 -104 0 c-57 0 -104 -2
-104 -5z"/>
<path d="M4 1509 c20 -260 90 -492 212 -703 157 -271 410 -506 687 -641 434
-210 943 -212 1386 -4 205 96 440 287 579 472 197 261 303 543 328 876 l7 91
-1603 0 -1603 0 7 -91z m1404 -111 c5 -7 72 -204 147 -437 109 -337 135 -431
130 -457 -3 -19 -9 -34 -13 -34 -4 0 -70 193 -146 430 -77 237 -142 430 -145
430 -3 0 -75 -217 -160 -483 -85 -265 -161 -499 -169 -519 l-14 -38 -89 0
c-49 0 -89 2 -89 4 0 28 16 36 75 36 35 0 67 5 70 11 4 6 83 245 175 531 92
286 174 524 182 529 19 12 34 11 46 -3z m800 -280 c15 -15 16 -50 2 -64 -7 -7
-9 -105 -8 -275 l3 -264 82 -5 81 -5 -18 -22 c-16 -21 -27 -23 -104 -23 -75 0
-86 2 -88 18 -1 9 -2 141 -2 292 -1 151 -5 287 -10 303 -14 45 30 77 62 45z"/>
</g>
</svg>
